/* XPM */
static char * pdfglass_xpm[] = {
"32 32 10 1",
" 	c None",
".	c #FFFFFF",
"+	c #CBCBCB",
"@	c #000000",
"#	c #D6D3CE",
"$	c #848284",
"%	c #C6C3C6",
"&	c #FF0000",
"*	c #840000",
"=	c #585858",
"         .++++@@@     @+++++    ",
"        .+++@@         @@++++   ",
"       .+++@              ++++  ",
"       +++@+++++++++++++++ +++  ",
"      .++@+##$......%%%%#+  +++ ",
"      +++@+&&&&&&***%.%$%+  +++ ",
"      ++@ +&&&&&&&&*$..%$+   ++ ",
"     .++@ +&&&&&&&**$$$$%+   +++",
"     .++@ +*********...%$+   +++",
"     ++@  +##$....%%....%+    ++",
"     ++@  +##$....$%.....+    ++",
"     ++@  +##$....%%.....+    ++",
"     ++@  +##$....$&.....+.   ++",
"     ++@  +##$....&%&%%..+    ++",
"     +++@ +##$...%.%%%%%.+   .++",
"     +++@ +##$..%%........   +++",
"      ++@ +##$.&%........+   ++@",
"      +++@+##$...........+  .++@",
"      +++@++++++++++++++++  +++@",
"       +++           .     .++@ ",
"       ++++    .  .       .+++@ ",
"        ++++             .+++@  ",
"        ++++++         .++++@   ",
"      +.+@++++++     .+++++@    ",
"     +.+=   +++++++++++++@@     ",
"    +.+=@     +++++++++@@       ",
"   +.+=@          @@@@@         ",
"  +.+=@                         ",
" +.+=@                          ",
"+.+=@                           ",
".+=@                            ",
"+=@                             "};
