/* XPM */
static char * book16_xpm[] = {
"16 16 7 1",
" 	c None",
".	c #000000",
"+	c #E0E1FF",
"@	c #AE0606",
"#	c #595A31",
"$	c #D2D492",
"%	c #919353",
"                ",
"     .......... ",
"    ..++@@++++. ",
"    .+++@@+++.  ",
"   ..++@++@++.  ",
"   .+++@@@@+.#  ",
"  ..++@+++@+.#  ",
"  .++++++++.$$. ",
" ...........$$. ",
" .#$$$$$$$$#$.  ",
" .%%%%%%%%#$$.  ",
" .#$$$$$$$#$.   ",
" .%%%%%%%%#$.   ",
" .#$$$$$$$$#    ",
"  ..........    ",
"                "};
