/* XPM */
static char * excel16_xpm[] = {
"16 16 256 2",
"  	c #529947",
". 	c #B8D4B8",
"+ 	c #DDEADC",
"@ 	c #6AB166",
"# 	c #F5F9F5",
"$ 	c #A2CF9A",
"% 	c #9BC496",
"& 	c #A9C6A5",
"* 	c #3C7B25",
"= 	c #6A9256",
"- 	c #C9E4C5",
"; 	c #8BC583",
"> 	c #233017",
", 	c #65A85A",
"' 	c #93C98A",
") 	c #94B68A",
"! 	c #5A6546",
"~ 	c #84C27D",
"{ 	c #E5F0E5",
"] 	c #E9F2E9",
"^ 	c #688B53",
"/ 	c #9ABB91",
"( 	c #588856",
"_ 	c #54963E",
": 	c #387834",
"< 	c #D9E8D9",
"[ 	c #5C7747",
"} 	c #EDF5ED",
"| 	c #D5E6D5",
"1 	c #4D9444",
"2 	c #DBE6D9",
"3 	c #458747",
"4 	c #2B6515",
"5 	c #88B685",
"6 	c #256525",
"7 	c #7AA26B",
"8 	c #839C73",
"9 	c #5F6E4B",
"0 	c #749D62",
"a 	c #535745",
"b 	c #C5DCC5",
"c 	c #F1F7F2",
"d 	c #7ABB74",
"e 	c #B6CDB4",
"f 	c #8AA57C",
"g 	c #63AE63",
"h 	c #43822A",
"i 	c #6FB46C",
"j 	c #7DA972",
"k 	c #316A19",
"l 	c #8EAA82",
"m 	c #36731D",
"n 	c #AAD4A3",
"o 	c #F0F7F1",
"p 	c #96A38A",
"q 	c #8F9C84",
"r 	c #FAFCFA",
"s 	c #0D520B",
"t 	c #E0ECE0",
"u 	c #649961",
"v 	c #5BA65A",
"w 	c #338332",
"x 	c #1F2512",
"y 	c #354621",
"z 	c #85BC79",
"A 	c #FFFFFF",
"B 	c #C3E0BD",
"C 	c #E4EFE4",
"D 	c #D5EAD4",
"E 	c #B3D8AC",
"F 	c #4A8E3D",
"G 	c #7F9870",
"H 	c #81BD74",
"I 	c #4C5D39",
"J 	c #F8FBF8",
"K 	c #DDEBDE",
"L 	c #D1E4D2",
"M 	c #529C50",
"N 	c #63844E",
"O 	c #43772A",
"P 	c #4F913A",
"Q 	c #79AA6B",
"R 	c #9BCF95",
"S 	c #77826B",
"T 	c #82A775",
"U 	c #B1C8AC",
"V 	c #437945",
"W 	c #5A7F58",
"X 	c #68AB63",
"Y 	c #A1BC99",
"Z 	c #55A053",
"` 	c #81AC74",
" .	c #7DBD78",
"..	c #4A8C32",
"+.	c #388642",
"@.	c #5C9B5A",
"#.	c #75B972",
"$.	c #5DA85D",
"%.	c #5CA155",
"&.	c #E3EEE3",
"*.	c #75A666",
"=.	c #5DA348",
"-.	c #458531",
";.	c #EAF4EA",
">.	c #265E11",
",.	c #235F24",
"'.	c #71B265",
").	c #FCFEFC",
"!.	c #63A25E",
"~.	c #D3E5D4",
"{.	c #75B371",
"].	c #88BF7B",
"^.	c #1A6B2F",
"/.	c #D0E3D1",
"(.	c #F2F8F3",
"_.	c #3F7E35",
":.	c #EEF6EF",
"<.	c #4B8135",
"[.	c #6CAB68",
"}.	c #89AC7D",
"|.	c #274922",
"1.	c #E1E9DF",
"2.	c #85AA79",
"3.	c #D0E8CC",
"4.	c #78B66A",
"5.	c #235A0A",
"6.	c #43843C",
"7.	c #7AB673",
"8.	c #468B3A",
"9.	c #539452",
"0.	c #8CB280",
"a.	c #4E613C",
"b.	c #396E21",
"c.	c #E2ECE2",
"d.	c #046014",
"e.	c #ABB5AC",
"f.	c #56694F",
"g.	c #326E34",
"h.	c #2D6B2E",
"i.	c #51653F",
"j.	c #86917B",
"k.	c #70975E",
"l.	c #70AD6B",
"m.	c #828F76",
"n.	c #869276",
"o.	c #619C54",
"p.	c #DEE8DD",
"q.	c #5F994D",
"r.	c #87A178",
"s.	c #38753D",
"t.	c #64A741",
"u.	c #FCFDFC",
"v.	c #7E946B",
"w.	c #79B86E",
"x.	c #E7EDE5",
"y.	c #5F7E49",
"z.	c #5E905C",
"A.	c #D6EAD8",
"B.	c #7D8A6F",
"C.	c #4A8A51",
"D.	c #5FAA5F",
"E.	c #75B05E",
"F.	c #CEE1CF",
"G.	c #F6FAF7",
"H.	c #ECF1EA",
"I.	c #0B080B",
"J.	c #DFEBDF",
"K.	c #6DAD5A",
"L.	c #86B07A",
"M.	c #E4ECE3",
"N.	c #29743A",
"O.	c #80966D",
"P.	c #71AD68",
"Q.	c #74A670",
"R.	c #79B463",
"S.	c #899680",
"T.	c #32411F",
"U.	c #D9ECDA",
"V.	c #6CA471",
"W.	c #D9E4D5",
"X.	c #E6F1E6",
"Y.	c #518C3B",
"Z.	c #3B5026",
"`.	c #72B76E",
" +	c #6BA25E",
".+	c #E7F1E7",
"++	c #57A457",
"@+	c #4C904D",
"#+	c #EDF2ED",
"$+	c #468936",
"%+	c #EBF4EB",
"&+	c #DCE9DB",
"*+	c #759E72",
"=+	c #6B7A67",
"-+	c #5B9456",
";+	c #6BA568",
">+	c #5F895E",
",+	c #7CAE80",
"'+	c #F6FEF7",
")+	c #1B5A1A",
"!+	c #30752D",
"~+	c #DAE9DA",
"{+	c #94CF8E",
"]+	c #FDFEFD",
"^+	c #5F9E61",
"/+	c #22441D",
"(+	c #F4F8F3",
"_+	c #77A067",
":+	c #E0EEE1",
"<+	c #6F925C",
"[+	c #E9EFE7",
"}+	c #E1ECE1",
"|+	c #E4EBE1",
"1+	c #E2EDE2",
"2+	c #80C07A",
"3+	c #E3EEE4",
"4+	c #FBFCFB",
"5+	c #F7FBF7",
"6+	c #A2C59F",
"7+	c #D7E7D7",
"8+	c #ECF4EC",
"9+	c #EAF3EB",
"0+	c #C0D8C0",
"a+	c #E1EFE2",
"b+	c #ECF7ED",
"c+	c #E4EAE4",
"d+	c #D7E3D3",
"e+	c #5A965B",
"f+	c #F2FBF3",
"g+	c #305F17",
"h+	c #599C40",
"i+	c #7EB879",
"j+	c #2B391B",
"k+	c #FEFEFD",
"l+	c #FBFDFB",
"m+	c #D4E4D3",
"n+	c #EFF8F0",
"o+	c #DCECDC",
"p+	c #81986F",
"q+	c #7EA66F",
"r+	c #D8E3D8",
"s+	c #7FB86F",
"t+	c #526E41",
"u+	c #4E7D4E",
"v+	c #B0D0B1",
"w+	c #BCDDB6",
"x+	c #68AC42",
"y+	c #4F873C",
"z+	c #81AE76",
"A+	c #66A266",
"B+	c #9DA59D",
"C+	c #295227",
"D+	c #43523C",
"E+	c #305732",
"F+	c #E2EEE1",
"G+	c #70936F",
"U.D 3.- B w+n n % ; ].H 4.E.E.K.",
"D l l l f f f r.r.8 8 p+p+O.v.=.",
"3.l A ]+l+r J G.(+c :.8+9+.+p =.",
"- l A A A A G.# c 5+# (.n+{ p =.",
"B l #.{+; ~ A+(.( 2+w.'.d.M.p h+",
"w+f r g ~ 2+d >+H H '.W { }+p _ ",
"n f J 5+l.{+i @ ( @ s.< t K q P ",
"n r.G.# # Z `.g v u+L }+K + q ..",
"' r.(+(.+., 1  .++M 6 6._ )+q ..",
"; 8 c { 4.g 9.F M   1 )+/+7+S.h ",
"].8 5 2+#.g $.Z M v F $+V 7+S.h ",
"].8 I.I.I.> > > > w   _ _ s j.* ",
"].8 } ] { 1+t K &+~+:+o+~+D n.* ",
"].8 9+.+&.t K + ~+7+| ~.L /.m.m ",
"].8 n.n.n.n.m.B.B.B.B.S S S 9 m ",
"; h+h+h+h+h+_ P ..-.h h * * m m "};
