/* XPM */
static char * options16_xpm[] = {
"16 16 3 1",
" 	c None",
".	c #494949",
"+	c #FFFFFF",
"           ..   ",
"          .+.   ",
"         .+.    ",
"         .+.  ..",
"         .++..+.",
"        .+++++. ",
"       .+++...  ",
"      .+++.     ",
"     .+++.      ",
"  ...+++.       ",
" .+++++.        ",
".+..++.         ",
"..  .+.         ",
"    .+.         ",
"   .+.          ",
"   ..           "};
