/* XPM */
static char * thispage_xpm[] = {
"16 16 5 1",
" 	c None",
".	c #FFFFFF",
"+	c #808080",
"@	c #240FEC",
"#	c #000000",
"        .+      ",
"        .@+     ",
"        .@@+    ",
"       .+@@@+   ",
"      .@@@@@@+  ",
"     .@@@@@@@@# ",
"    .@@@@@@@@#  ",
"   .@@@@+@@@#   ",
"  .+@@@#.@@#    ",
"  .@@@@#.@#     ",
"  .@@@##.#      ",
"  .@@@#         ",
"  .@@@#         ",
"  .@@@#         ",
"  .@@@#         ",
"  #####         "};
