/* XPM */
static char * xml16_xpm[] = {
"16 16 3 1",
" 	c None",
".	c #025E00",
"+	c #FF0000",
"                ",
"  ............  ",
"  ............  ",
"  .    ..    .  ",
"    +  ..  +    ",
"   ++  ..  ++   ",
"  ++   ..   ++  ",
" ++    ..    ++ ",
"++     ..     ++",
" ++    ..    ++ ",
"  ++   ..   ++  ",
"   ++  ..  ++   ",
"    +  ..  +    ",
"      ....      ",
"     ......     ",
"                "};
